<?xml version="1.0" encoding="UTF-8"?>
<svg width="48px" height="48px" viewBox="0 0 48 48" version="1.1" xmlns="http://www.w3.org/2000/svg" xmlns:xlink="http://www.w3.org/1999/xlink">
    <title>svg5_5</title>
    <g id="5_5" stroke="none" stroke-width="1" fill="none" fill-rule="evenodd">
        <path d="M11.4832077,31.4285714 C12.3751428,31.4285714 13.1683802,31.2387981 13.8629198,30.8592514 C14.5574594,30.4797048 15.1094357,29.9033562 15.5188485,29.1302056 L15.5188485,29.1302056 L14.0493489,28.3078545 C13.4206077,29.2637498 12.5506054,29.7416974 11.439342,29.7416974 C10.4158099,29.7416974 9.58236235,29.3832367 8.93899931,28.6663152 C8.29563628,27.9493938 7.97395476,26.9653839 7.97395476,25.7142857 C7.97395476,24.4631875 8.29563628,23.4791776 8.93899931,22.7622562 C9.58236235,22.0453347 10.4158099,21.686874 11.439342,21.686874 C12.5506054,21.686874 13.4206077,22.1648216 14.0493489,23.1207169 L14.0493489,23.1207169 L15.5188485,22.2983658 C15.1094357,21.5252153 14.5574594,20.9488666 13.8629198,20.56932 C13.1683802,20.1897733 12.3751428,20 11.4832077,20 C10.4596756,20 9.53118574,20.2389738 8.69773818,20.7169215 C7.86429061,21.1948691 7.20630569,21.8661044 6.72378341,22.7306273 C6.24126114,23.5951502 6,24.589703 6,25.7142857 C6,26.8388684 6.24126114,27.8334212 6.72378341,28.6979441 C7.20630569,29.5624671 7.86429061,30.2337023 8.69773818,30.71165 C9.53118574,31.1895976 10.4596756,31.4285714 11.4832077,31.4285714 Z M22.1644962,31.4285714 C23.1295408,31.4285714 24.0287868,31.1860833 24.8622344,30.701107 C25.695682,30.2161307 26.3609778,29.5413811 26.858122,28.6768582 C27.3552662,27.8123353 27.6038382,26.8248111 27.6038382,25.7142857 C27.6038382,24.6037603 27.3552662,23.6127218 26.858122,22.7411703 C26.3609778,21.8696187 25.695682,21.1948691 24.8622344,20.7169215 C24.0287868,20.2389738 23.1295408,20 22.1644962,20 C21.1994517,20 20.3002056,20.2424881 19.4667581,20.7274644 C18.6333105,21.2124407 17.9643592,21.8907046 17.459904,22.7622562 C16.9554489,23.6338078 16.7032214,24.6178176 16.7032214,25.7142857 C16.7032214,26.8248111 16.9517935,27.8123353 17.4489376,28.6768582 C17.9460818,29.5413811 18.6150331,30.2161307 19.4557916,30.701107 C20.2965501,31.1860833 21.1994517,31.4285714 22.1644962,31.4285714 Z M22.1644962,29.7416974 C21.5065113,29.7416974 20.9143249,29.5800387 20.3879369,29.2567211 C19.861549,28.9334036 19.4448252,28.4695133 19.1377656,27.8650501 C18.830706,27.2605869 18.6771761,26.5436654 18.6771761,25.7142857 C18.6771761,24.884906 18.830706,24.1679845 19.1377656,23.5635213 C19.4448252,22.9590582 19.861549,22.4951678 20.3879369,22.1718503 C20.9143249,21.8485328 21.5065113,21.686874 22.1644962,21.686874 C22.8224812,21.686874 23.4146676,21.8485328 23.9410555,22.1718503 C24.4674435,22.4951678 24.8805118,22.9590582 25.1802605,23.5635213 C25.4800091,24.1679845 25.6298835,24.884906 25.6298835,25.7142857 C25.6298835,26.5436654 25.4800091,27.2605869 25.1802605,27.8650501 C24.8805118,28.4695133 24.4674435,28.9334036 23.9410555,29.2567211 C23.4146676,29.5800387 22.8224812,29.7416974 22.1644962,29.7416974 Z M33.7450308,31.4285714 C34.5784784,31.4285714 35.3168837,31.2879986 35.9602467,31.0068529 C36.6036098,30.7257073 37.1044094,30.3321033 37.4626456,29.8260411 C37.8208819,29.3199789 38,28.7366017 38,28.0759093 C38,27.3871024 37.8208819,26.8318397 37.4626456,26.4101212 C37.1044094,25.9884027 36.6767192,25.6756282 36.1795751,25.4717976 C35.6824309,25.267967 35.0317569,25.060622 34.2275531,24.8497628 C33.6134339,24.6810754 33.1382225,24.5334739 32.8019191,24.4069584 C32.4656157,24.2804428 32.1841444,24.1117554 31.9575051,23.9008962 C31.7308659,23.6900369 31.6175463,23.4159199 31.6175463,23.0785451 C31.6175463,22.6146547 31.8112863,22.2597083 32.1987663,22.0137059 C32.5862463,21.7677034 33.1016678,21.6447022 33.7450308,21.6447022 C34.373772,21.6447022 34.9184373,21.774732 35.3790267,22.0347918 C35.8396162,22.2948515 36.186886,22.6638552 36.4208362,23.1418028 L36.4208362,23.1418028 L37.8464702,22.3616236 C37.5978981,21.6306449 37.1153758,21.0542963 36.3989034,20.6325778 C35.6824309,20.2108593 34.8270505,20 33.8327622,20 C33.072424,20 32.3742289,20.1300299 31.7381768,20.3900896 C31.1021247,20.6501494 30.5976696,21.0261817 30.2248115,21.5181866 C29.8519534,22.0101915 29.6655243,22.5865402 29.6655243,23.2472325 C29.6655243,23.8798102 29.833676,24.3893868 30.1699794,24.775962 C30.5062828,25.1625373 30.9156957,25.454226 31.398218,25.6510279 C31.8807402,25.8478299 32.5094814,26.0516605 33.2844414,26.2625198 C33.9278044,26.4452645 34.4286041,26.6034089 34.7868403,26.7369531 C35.1450765,26.8704973 35.4448252,27.0567563 35.6860864,27.2957301 C35.9273475,27.5347039 36.0479781,27.8439642 36.0479781,28.2235108 C36.0479781,28.7155157 35.8432716,29.102091 35.4338588,29.3832367 C35.024446,29.6643824 34.4615033,29.8049552 33.7450308,29.8049552 C32.2682202,29.8049552 31.25931,29.1934634 30.7183002,27.9704797 L30.7183002,27.9704797 L29.2926662,28.7506589 C29.5412383,29.5800387 30.0676262,30.2337023 30.87183,30.71165 C31.6760338,31.1895976 32.6337674,31.4285714 33.7450308,31.4285714 Z" id="cos" fill="#000000" fill-rule="nonzero"></path>
        <path d="M39.935,17.75 L39.935,16.89 L36.265,16.89 L36.265,17.75 L39.935,17.75 Z M44.495,20.34 L44.495,13.01 L43.665,13.01 L41.495,14.26 L41.495,15.33 L43.405,14.25 L43.405,20.34 L44.495,20.34 Z" id="-1" fill="#000000" fill-rule="nonzero"></path>
    </g>
</svg>