<?xml version="1.0" encoding="UTF-8"?>
<svg width="48px" height="48px" viewBox="0 0 48 48" version="1.1" xmlns="http://www.w3.org/2000/svg" xmlns:xlink="http://www.w3.org/1999/xlink">
    <title>svg5_4</title>
    <g id="5_4" stroke="none" stroke-width="1" fill="none" fill-rule="evenodd">
        <path d="M12.4315701,32.25 C13.2611251,32.25 13.9960817,32.1034235 14.63644,31.8102706 C15.2767982,31.5171177 15.7752589,31.1067036 16.131822,30.5790283 C16.4883851,30.051353 16.6666667,29.4430607 16.6666667,28.7541513 C16.6666667,28.0359266 16.4883851,27.4569496 16.131822,27.0172202 C15.7752589,26.5774908 15.3495662,26.2513581 14.8547439,26.0388223 C14.3599216,25.8262864 13.7122866,25.6100861 12.9118388,25.3902214 C12.3005877,25.2143296 11.8275959,25.0604244 11.4928631,24.9285055 C11.1581304,24.7965867 10.8779737,24.620695 10.6523929,24.4008303 C10.4268122,24.1809656 10.3140218,23.8951415 10.3140218,23.5433579 C10.3140218,23.0596556 10.506857,22.68955 10.8925273,22.4330412 C11.2781976,22.1765324 11.7912119,22.048278 12.4315701,22.048278 C13.0573748,22.048278 13.5994962,22.1838612 14.0579345,22.4550277 C14.5163728,22.7261941 14.8620207,23.1109574 15.0948783,23.6093173 L15.0948783,23.6093173 L16.5138539,22.795818 C16.2664428,22.0336203 15.7861741,21.4326568 15.0730479,20.9929274 C14.3599216,20.553198 13.5085362,20.3333333 12.5188917,20.3333333 C11.7621047,20.3333333 11.0671704,20.4689166 10.434089,20.740083 C9.80100756,21.0112495 9.29890848,21.4033415 8.92779177,21.9163592 C8.55667506,22.4293768 8.37111671,23.0303403 8.37111671,23.7192497 C8.37111671,24.3788438 8.53848307,24.9101835 8.87321579,25.3132688 C9.2079485,25.716354 9.6154492,26.0205002 10.0957179,26.2257073 C10.5759866,26.4309143 11.2017912,26.6434502 11.9731318,26.8633149 C12.6134901,27.0538643 13.1119507,27.2187628 13.4685139,27.3580105 C13.825077,27.4972581 14.1234257,27.6914719 14.36356,27.9406519 C14.6036944,28.1898319 14.7237615,28.5123001 14.7237615,28.9080566 C14.7237615,29.4210742 14.5200112,29.8241595 14.1125105,30.1173124 C13.7050098,30.4104654 13.1446963,30.5570418 12.4315701,30.5570418 C10.9616569,30.5570418 9.95745872,29.9194342 9.41897565,28.6442189 L9.41897565,28.6442189 L8,29.4577183 C8.24741114,30.3225195 8.77134061,31.0041 9.57178841,31.50246 C10.3722362,32.00082 11.3254968,32.25 12.4315701,32.25 Z M19.9070796,18.1666667 C20.2010816,18.1666667 20.4567355,18.0577107 20.6740413,17.8397989 C20.8913471,17.621887 21,17.3697318 21,17.0833333 C21,16.7844828 20.8945428,16.5292146 20.6836283,16.3175287 C20.4727139,16.1058429 20.2138643,16 19.9070796,16 C19.6130777,16 19.3606195,16.1089559 19.149705,16.3268678 C18.9387906,16.5447797 18.8333333,16.7969349 18.8333333,17.0833333 C18.8333333,17.3697318 18.9387906,17.621887 19.149705,17.8397989 C19.3606195,18.0577107 19.6130777,18.1666667 19.9070796,18.1666667 Z M21,32.25 L21,20.3333333 L18.8333333,20.3333333 L18.8333333,32.25 L21,32.25 Z M26.1595622,32.25 L26.1595622,25.6296296 C26.1595622,24.8666039 26.3168203,24.2270088 26.6313364,23.7108443 C26.9458525,23.1946798 27.3539747,22.8056863 27.8557028,22.5438638 C28.3574309,22.2820412 28.8928571,22.1511299 29.4619816,22.1511299 C30.3306452,22.1511299 30.9858871,22.4503557 31.4277074,23.0488073 C31.8695276,23.6472588 32.0904378,24.5000523 32.0904378,25.6071877 L32.0904378,25.6071877 L32.0904378,32.25 L34,32.25 L34,25.0685813 C34,23.5574911 33.625576,22.3905106 32.8767281,21.5676397 C32.1278802,20.7447688 31.1319124,20.3333333 29.8888249,20.3333333 C29.0650922,20.3333333 28.3199885,20.5203494 27.6535138,20.8943817 C26.9870392,21.2684139 26.4591014,21.8145009 26.0697005,22.5326428 C26.0097926,21.9940364 25.9648618,21.350701 25.9349078,20.6026365 L25.9349078,20.6026365 L24.25,20.6026365 L24.25,32.25 L26.1595622,32.25 Z" id="sin" fill="#000000" fill-rule="nonzero"></path>
        <path d="M37.935,17.75 L37.935,16.89 L34.265,16.89 L34.265,17.75 L37.935,17.75 Z M42.495,20.34 L42.495,13.01 L41.665,13.01 L39.495,14.26 L39.495,15.33 L41.405,14.25 L41.405,20.34 L42.495,20.34 Z" id="-1" fill="#000000" fill-rule="nonzero"></path>
    </g>
</svg>