<?xml version="1.0" encoding="UTF-8"?>
<svg width="48px" height="48px" viewBox="0 0 48 48" version="1.1" xmlns="http://www.w3.org/2000/svg" xmlns:xlink="http://www.w3.org/1999/xlink">
    <title>svg5_6</title>
    <g id="5_6" stroke="none" stroke-width="1" fill="none" fill-rule="evenodd">
        <path d="M11.155587,30.9285714 C12.0608204,30.9285714 12.8033946,30.7362637 13.3833098,30.3516484 L13.3833098,30.3516484 L12.7892504,28.9093407 C12.3507779,29.1565934 11.8769448,29.2802198 11.3677511,29.2802198 C10.2079208,29.2802198 9.62800566,28.5315934 9.62800566,27.0343407 L9.62800566,27.0343407 L9.62800566,21.5123626 L12.8316832,21.5123626 L12.8316832,19.9876374 L9.62800566,19.9876374 L9.62800566,17 L7.82461103,17 L7.82461103,19.9876374 L6,19.9876374 L6,21.5123626 L7.82461103,21.5123626 L7.82461103,27.2403846 C7.82461103,29.6991758 8.93493635,30.9285714 11.155587,30.9285714 Z M18.6874116,30.9285714 C19.4229137,30.9285714 20.0770863,30.7946429 20.6499293,30.5267857 C21.2227723,30.2589286 21.678925,29.864011 22.0183876,29.342033 C22.0325318,29.5480769 22.0608204,30.0013736 22.1032532,30.7019231 L22.1032532,30.7019231 L23.6944837,30.7019231 L23.6944837,24.0054945 C23.6944837,22.6456044 23.2984441,21.5982143 22.5063649,20.8633242 C21.7142857,20.1284341 20.6958982,19.760989 19.4512023,19.760989 C18.4611033,19.760989 17.5806223,19.9842033 16.8097595,20.4306319 C16.0388967,20.8770604 15.4837341,21.4711538 15.1442716,22.2129121 L15.1442716,22.2129121 L16.523338,22.9752747 C16.834512,22.4395604 17.2164074,22.0343407 17.669024,21.7596154 C18.1216407,21.4848901 18.6874116,21.3475275 19.3663366,21.3475275 C20.2149929,21.3475275 20.8479491,21.5913462 21.2652051,22.0789835 C21.6824611,22.5666209 21.8910891,23.3118132 21.8910891,24.3145604 L21.8910891,24.3145604 L21.8910891,24.5 C21.0424328,24.293956 20.2220651,24.1909341 19.4299859,24.1909341 C18.029703,24.1909341 16.887553,24.4965659 16.0035361,25.1078297 C15.1195191,25.7190934 14.6775106,26.5535714 14.6775106,27.6112637 C14.6775106,28.3118132 14.8613861,28.9127747 15.2291372,29.4141484 C15.5968883,29.915522 16.0884017,30.2932692 16.7036775,30.5473901 C17.3189533,30.801511 17.980198,30.9285714 18.6874116,30.9285714 Z M18.8571429,29.4244505 C18.1782178,29.4244505 17.6265912,29.2630495 17.2022631,28.9402473 C16.7779349,28.6174451 16.5657709,28.1675824 16.5657709,27.5906593 C16.5657709,26.9725275 16.8168317,26.4917582 17.3189533,26.1483516 C17.821075,25.8049451 18.5318246,25.6332418 19.4512023,25.6332418 C20.1867044,25.6332418 21,25.7431319 21.8910891,25.9629121 L21.8910891,25.9629121 L21.8910891,26.7458791 C21.8910891,27.5837912 21.5940594,28.2396978 21,28.7135989 C20.4059406,29.1875 19.6916549,29.4244505 18.8571429,29.4244505 Z M28.5954738,30.7019231 L28.5954738,24.6236264 C28.5954738,23.9230769 28.7439887,23.3358516 29.0410184,22.8619505 C29.3380481,22.3880495 29.7234795,22.0309066 30.1973126,21.790522 C30.6711457,21.5501374 31.1768034,21.4299451 31.7142857,21.4299451 C32.5346535,21.4299451 33.1534653,21.7046703 33.5707214,22.2541209 C33.9879774,22.8035714 34.1966054,23.5865385 34.1966054,24.603022 L34.1966054,24.603022 L34.1966054,30.7019231 L36,30.7019231 L36,24.1085165 C36,22.7211538 35.6463932,21.6497253 34.9391796,20.8942308 C34.2319661,20.1387363 33.291372,19.760989 32.1173975,19.760989 C31.3394625,19.760989 30.635785,19.9326923 30.0063649,20.2760989 C29.3769448,20.6195055 28.8783593,21.1208791 28.5106082,21.7802198 C28.4540311,21.2857143 28.4115983,20.6950549 28.3833098,20.0082418 L28.3833098,20.0082418 L26.7920792,20.0082418 L26.7920792,30.7019231 L28.5954738,30.7019231 Z" id="tan" fill="#000000" fill-rule="nonzero"></path>
        <path d="M39.935,17.75 L39.935,16.89 L36.265,16.89 L36.265,17.75 L39.935,17.75 Z M44.495,20.34 L44.495,13.01 L43.665,13.01 L41.495,14.26 L41.495,15.33 L43.405,14.25 L43.405,20.34 L44.495,20.34 Z" id="-1" fill="#000000" fill-rule="nonzero"></path>
    </g>
</svg>