<?xml version="1.0" encoding="UTF-8"?>
<svg width="48px" height="48px" viewBox="0 0 48 48" version="1.1" xmlns="http://www.w3.org/2000/svg" xmlns:xlink="http://www.w3.org/1999/xlink">
    <title>svgc</title>
    <g id="c" stroke="none" stroke-width="1" fill="none" fill-rule="evenodd">
        <path d="M25.03,35.3315 C26.8,35.3315 28.3536667,34.9086667 29.691,34.063 C31.0283333,33.2173333 32.0116667,32.0668333 32.641,30.6115 L32.641,30.6115 L29.986,29.0185 C28.8256667,31.2408333 27.1736667,32.352 25.03,32.352 C23.024,32.352 21.4260833,31.59975 20.23625,30.09525 C19.0464167,28.59075 18.4515,26.6093333 18.4515,24.151 C18.4515,21.6926667 19.0464167,19.7161667 20.23625,18.2215 C21.4260833,16.7268333 23.024,15.9795 25.03,15.9795 C27.1736667,15.9795 28.8256667,17.0906667 29.986,19.313 L29.986,19.313 L32.641,17.72 C32.0116667,16.2646667 31.0283333,15.1141667 29.691,14.2685 C28.3536667,13.4228333 26.8,13 25.03,13 C22.1783333,13 19.79375,14.0374167 17.87625,16.11225 C15.95875,18.1870833 15,20.8666667 15,24.151 C15,27.455 15.95875,30.1444167 17.87625,32.21925 C19.79375,34.2940833 22.1783333,35.3315 25.03,35.3315 Z" id="C" fill="#0A59F7" fill-rule="nonzero"></path>
    </g>
</svg>