<?xml version="1.0" encoding="UTF-8"?>
<svg width="41px" height="41px" viewBox="0 0 41 41" version="1.1" xmlns="http://www.w3.org/2000/svg" xmlns:xlink="http://www.w3.org/1999/xlink">
    <title>svgmore</title>
    <defs>
        <path d="M14.25,24 C15.2164983,24 16,24.7835017 16,25.75 C16,26.7164983 15.2164983,27.5 14.25,27.5 C13.2835017,27.5 12.5,26.7164983 12.5,25.75 C12.5,24.7835017 13.2835017,24 14.25,24 Z M25.75,24 C26.7164983,24 27.5,24.7835017 27.5,25.75 C27.5,26.7164983 26.7164983,27.5 25.75,27.5 C24.7835017,27.5 24,26.7164983 24,25.75 C24,24.7835017 24.7835017,24 25.75,24 Z M14.25,12.5 C15.2164983,12.5 16,13.2835017 16,14.25 C16,15.2164983 15.2164983,16 14.25,16 C13.2835017,16 12.5,15.2164983 12.5,14.25 C12.5,13.2835017 13.2835017,12.5 14.25,12.5 Z M25.75,12.5 C26.7164983,12.5 27.5,13.2835017 27.5,14.25 C27.5,15.2164983 26.7164983,16 25.75,16 C24.7835017,16 24,15.2164983 24,14.25 C24,13.2835017 24.7835017,12.5 25.75,12.5 Z" id="path-1"></path>
    </defs>
    <g id="页面-1" stroke="none" stroke-width="1" fill="none" fill-rule="evenodd">
        <g id="more" transform="translate(0.970657, 0.260074)">
            <mask id="mask-2" fill="white">
                <use xlink:href="#path-1"></use>
            </mask>
            <use id="形状结合" fill-opacity="0.901960784" fill="#000000" xlink:href="#path-1"></use>
        </g>
    </g>
</svg>