<?xml version="1.0" encoding="UTF-8"?>
<svg width="48px" height="48px" viewBox="0 0 48 48" version="1.1" xmlns="http://www.w3.org/2000/svg" xmlns:xlink="http://www.w3.org/1999/xlink">
    <title>svg2_2</title>
    <g id="2_2" stroke="none" stroke-width="1" fill="none" fill-rule="evenodd">
        <path d="M18.848,32.816 L22.16,28.208 L25.376,32.816 L27.872,32.816 L23.36,26.552 L27.872,20.36 L25.544,20.36 L22.256,24.968 L19.016,20.36 L16.472,20.36 L21.032,26.648 L16.472,32.816 L18.848,32.816 Z M31.808,21.488 C32.752,21.488 33.544,21.22 34.184,20.684 C34.824,20.148 35.144,19.472 35.144,18.656 C35.144,17.616 34.6,16.904 33.512,16.52 C34.408,16.088 34.856,15.408 34.856,14.48 C34.856,13.712 34.568,13.088 33.992,12.608 C33.416,12.128 32.696,11.888 31.832,11.888 C31.08,11.888 30.424,12.076 29.864,12.452 C29.304,12.828 28.912,13.336 28.688,13.976 L28.688,13.976 L29.84,14.648 C30.032,14.216 30.3,13.884 30.644,13.652 C30.988,13.42 31.36,13.304 31.76,13.304 C32.208,13.304 32.556,13.424 32.804,13.664 C33.052,13.904 33.176,14.2 33.176,14.552 C33.176,14.936 33.02,15.264 32.708,15.536 C32.396,15.808 31.992,15.944 31.496,15.944 L31.496,15.944 L30.8,15.944 L30.824,17.144 L31.424,17.144 C32,17.144 32.484,17.268 32.876,17.516 C33.268,17.764 33.464,18.136 33.464,18.632 C33.464,19.048 33.312,19.396 33.008,19.676 C32.704,19.956 32.304,20.096 31.808,20.096 C31.36,20.096 30.96,19.968 30.608,19.712 C30.256,19.456 29.992,19.088 29.816,18.608 L29.816,18.608 L28.592,19.352 C28.832,20.024 29.236,20.548 29.804,20.924 C30.372,21.3 31.04,21.488 31.808,21.488 Z" id="x3" fill="#000000" fill-rule="nonzero"></path>
    </g>
</svg>