<?xml version="1.0" encoding="UTF-8"?>
<svg width="48px" height="48px" viewBox="0 0 48 48" version="1.1" xmlns="http://www.w3.org/2000/svg" xmlns:xlink="http://www.w3.org/1999/xlink">
    <title>svg5_2</title>
    <g id="5_2" stroke="none" stroke-width="1" fill="none" fill-rule="evenodd">
        <path d="M12.72,31.08 C13.696,31.08 14.564,30.864 15.324,30.432 C16.084,30 16.688,29.344 17.136,28.464 L17.136,28.464 L15.528,27.528 C14.84,28.616 13.888,29.16 12.672,29.16 C11.552,29.16 10.64,28.752 9.936,27.936 C9.232,27.12 8.88,26 8.88,24.576 C8.88,23.152 9.232,22.032 9.936,21.216 C10.64,20.4 11.552,19.992 12.672,19.992 C13.888,19.992 14.84,20.536 15.528,21.624 L15.528,21.624 L17.136,20.688 C16.688,19.808 16.084,19.152 15.324,18.72 C14.564,18.288 13.696,18.072 12.72,18.072 C11.6,18.072 10.584,18.344 9.672,18.888 C8.76,19.432 8.04,20.196 7.512,21.18 C6.984,22.164 6.72,23.296 6.72,24.576 C6.72,25.856 6.984,26.988 7.512,27.972 C8.04,28.956 8.76,29.72 9.672,30.264 C10.584,30.808 11.6,31.08 12.72,31.08 Z M24.408,31.08 C25.464,31.08 26.448,30.804 27.36,30.252 C28.272,29.7 29,28.932 29.544,27.948 C30.088,26.964 30.36,25.84 30.36,24.576 C30.36,23.312 30.088,22.184 29.544,21.192 C29,20.2 28.272,19.432 27.36,18.888 C26.448,18.344 25.464,18.072 24.408,18.072 C23.352,18.072 22.368,18.348 21.456,18.9 C20.544,19.452 19.812,20.224 19.26,21.216 C18.708,22.208 18.432,23.328 18.432,24.576 C18.432,25.84 18.704,26.964 19.248,27.948 C19.792,28.932 20.524,29.7 21.444,30.252 C22.364,30.804 23.352,31.08 24.408,31.08 Z M24.408,29.16 C23.688,29.16 23.04,28.976 22.464,28.608 C21.888,28.24 21.432,27.712 21.096,27.024 C20.76,26.336 20.592,25.52 20.592,24.576 C20.592,23.632 20.76,22.816 21.096,22.128 C21.432,21.44 21.888,20.912 22.464,20.544 C23.04,20.176 23.688,19.992 24.408,19.992 C25.128,19.992 25.776,20.176 26.352,20.544 C26.928,20.912 27.38,21.44 27.708,22.128 C28.036,22.816 28.2,23.632 28.2,24.576 C28.2,25.52 28.036,26.336 27.708,27.024 C27.38,27.712 26.928,28.24 26.352,28.608 C25.776,28.976 25.128,29.16 24.408,29.16 Z M37.08,31.08 C37.992,31.08 38.8,30.92 39.504,30.6 C40.208,30.28 40.756,29.832 41.148,29.256 C41.54,28.68 41.736,28.016 41.736,27.264 C41.736,26.48 41.54,25.848 41.148,25.368 C40.756,24.888 40.288,24.532 39.744,24.3 C39.2,24.068 38.488,23.832 37.608,23.592 C36.936,23.4 36.416,23.232 36.048,23.088 C35.68,22.944 35.372,22.752 35.124,22.512 C34.876,22.272 34.752,21.96 34.752,21.576 C34.752,21.048 34.964,20.644 35.388,20.364 C35.812,20.084 36.376,19.944 37.08,19.944 C37.768,19.944 38.364,20.092 38.868,20.388 C39.372,20.684 39.752,21.104 40.008,21.648 L40.008,21.648 L41.568,20.76 C41.296,19.928 40.768,19.272 39.984,18.792 C39.2,18.312 38.264,18.072 37.176,18.072 C36.344,18.072 35.58,18.22 34.884,18.516 C34.188,18.812 33.636,19.24 33.228,19.8 C32.82,20.36 32.616,21.016 32.616,21.768 C32.616,22.488 32.8,23.068 33.168,23.508 C33.536,23.948 33.984,24.28 34.512,24.504 C35.04,24.728 35.728,24.96 36.576,25.2 C37.28,25.408 37.828,25.588 38.22,25.74 C38.612,25.892 38.94,26.104 39.204,26.376 C39.468,26.648 39.6,27 39.6,27.432 C39.6,27.992 39.376,28.432 38.928,28.752 C38.48,29.072 37.864,29.232 37.08,29.232 C35.464,29.232 34.36,28.536 33.768,27.144 L33.768,27.144 L32.208,28.032 C32.48,28.976 33.056,29.72 33.936,30.264 C34.816,30.808 35.864,31.08 37.08,31.08 Z" id="cos" fill="#000000" fill-rule="nonzero"></path>
    </g>
</svg>