<?xml version="1.0" encoding="UTF-8"?>
<svg width="16px" height="16px" viewBox="0 0 16 16" version="1.1" xmlns="http://www.w3.org/2000/svg" xmlns:xlink="http://www.w3.org/1999/xlink">
    <title>path-1</title>
    <g id="é¡µé¢-1" stroke="none" stroke-width="1" fill="none" fill-rule="evenodd">
        <path d="M15.905,0.25 L14.7182288,12.3181369 C14.5545878,13.9818206 13.1555495,15.25 11.4838372,15.25 L11.4838372,15.25 L4.51616277,15.25 C2.84445049,15.25 1.44541221,13.9818206 1.28177119,12.3181369 L1.28177119,12.3181369 L0.094,0.25 L15.905,0.25 Z M6,5 C5.58578644,5 5.25,5.3357864 5.25,5.75 L5.25,5.75 L5.25,11.75 C5.25,12.1642136 5.58578644,12.5 6,12.5 C6.4142136,12.5 6.75,12.1642136 6.75,11.75 L6.75,11.75 L6.75,5.75 C6.75,5.3357864 6.4142136,5 6,5 Z M10,5 C9.5857864,5 9.25,5.3357864 9.25,5.75 L9.25,5.75 L9.25,11.75 C9.25,12.1642136 9.5857864,12.5 10,12.5 C10.4142136,12.5 10.75,12.1642136 10.75,11.75 L10.75,11.75 L10.75,5.75 C10.75,5.3357864 10.4142136,5 10,5 Z" id="path-1" fill="#FFFFFF" fill-rule="nonzero"></path>
    </g>
</svg>