<?xml version="1.0" encoding="UTF-8"?>
<svg width="48px" height="48px" viewBox="0 0 48 48" version="1.1" xmlns="http://www.w3.org/2000/svg" xmlns:xlink="http://www.w3.org/1999/xlink">
    <title>svg6_2</title>
    <g id="6_2" stroke="none" stroke-width="1" fill="none" fill-rule="evenodd">
        <path d="M36.766,21.016 C37.5369633,21.016 38.267427,21.2013969 38.9566767,21.5719612 C39.6470773,21.9431443 40.2001776,22.4925326 40.5222806,23.2387107 L40.5875643,22.5635604 L40.704,21.258 L42.404,21.308 L42.404,31.7146851 L42.3992292,32.0621188 C42.3610027,33.4356532 42.0930158,34.5563736 41.594349,35.4239171 C41.0541934,36.3636398 40.3795305,37.0271819 39.5705288,37.4131277 C38.764454,37.7976772 37.9100968,37.99 37.008,37.99 C35.8704842,37.99 34.8575257,37.7460027 33.9699041,37.2578108 C33.148012,36.8057702 32.5654004,36.1819345 32.2410841,35.3396272 L32.1653971,35.1244719 L33.7528532,34.2879049 L33.842027,34.4689734 C34.427023,35.5765567 35.4869612,36.13 37.03,36.13 C39.2328636,36.13 40.3643297,34.7397701 40.4308805,31.9369076 L40.434,31.67 L40.5255747,31.0157767 L40.3788187,31.2353998 C39.9736589,31.8076056 39.4771072,32.2425467 38.889561,32.5396206 C38.2298581,32.8731783 37.5217926,33.04 36.766,33.04 C35.8912541,33.04 35.0644951,32.7990164 34.2866823,32.3175133 C33.508872,31.8360116 32.8794919,31.1399913 32.3987931,30.2303614 C31.9181326,29.3208037 31.678,28.2531373 31.678,27.028 C31.678,25.8030141 31.9143976,24.7318373 32.387569,23.8150679 C32.8610166,22.897763 33.4906454,22.2014677 34.2761565,21.7271968 C35.0611912,21.2532136 35.8914388,21.016 36.766,21.016 Z M25.106,21.016 C26.0977477,21.016 26.9685946,21.2494611 27.7174622,21.7165765 C28.4659775,22.1834722 29.0406156,22.8174277 29.4407214,23.6176393 C29.8402766,24.4167499 30.04,25.3044093 30.04,26.28 C30.04,26.6107364 30.0210839,26.9180641 29.9579943,27.2232141 L29.902,27.452 L21.7238637,27.3983109 L21.744104,27.6720037 C21.851042,28.8285725 22.2135483,29.6973873 22.8303544,30.2806713 C23.4954651,30.9096346 24.3337727,31.224 25.348,31.224 C26.5276611,31.224 27.398626,30.7810911 28.0231068,29.877428 L28.1447349,29.6905468 L29.596173,30.5671848 L29.509233,30.7763541 C29.1960571,31.4642336 28.6706214,32.0044357 27.9344874,32.39614 C27.1277623,32.8254066 26.2286899,33.04 25.238,33.04 C24.2029572,33.04 23.2595789,32.8032305 22.4086856,32.3296899 C21.5569402,31.8556751 20.8828805,31.1630973 20.3870916,30.2529176 C19.8915268,29.3431493 19.644,28.2532927 19.644,26.984 C19.644,25.7586024 19.8915886,24.694341 20.387174,23.7919316 C20.8828576,22.8893436 21.5456918,22.2005886 22.3751931,21.7265878 C23.2041583,21.2528934 24.1147174,21.016 25.106,21.016 Z M4.866,16.594 L9.266,16.594 L9.65675059,16.6005984 C11.078272,16.6490146 12.3673422,16.9638891 13.5234651,17.545331 C14.7859988,18.1802894 15.7794514,19.1072657 16.5029892,20.325467 C17.2264694,21.5435716 17.588,22.9933829 17.588,24.674 C17.588,26.3691899 17.2301888,27.8262563 16.5141034,29.0443396 C15.7979309,30.2625713 14.8081726,31.1932395 13.5456729,31.8355639 C12.3895248,32.4237796 11.0942978,32.7423135 9.66047768,32.7913177 L9.266,32.798 L4.816,32.748 L4.866,16.594 Z M36.986,22.898 C36.0034314,22.898 35.2183577,23.2581255 34.6266634,23.979704 C34.0334094,24.7031844 33.736,25.7187289 33.736,27.028 C33.736,28.3519568 34.0334367,29.3748488 34.6266634,30.098296 C35.2183577,30.8198745 36.0034314,31.18 36.986,31.18 C37.9262156,31.18 38.7350071,30.8478178 39.4150268,30.1822666 C40.0934734,29.5182551 40.434,28.4676942 40.434,27.028 C40.434,25.6029887 40.0935078,24.5597786 39.4150268,23.8957334 C38.7350071,23.2301822 37.9262156,22.898 36.986,22.898 Z M6.874,18.36 L6.824,30.96 L9.002,30.96 C11.0138311,30.96 12.5853565,30.4143314 13.7193446,29.3239583 C14.8527974,28.2340998 15.42,26.6852005 15.42,24.674 C15.42,22.6921884 14.8491983,21.1542959 13.70834,20.0570372 C12.6341157,19.0238661 11.1821045,18.4765205 9.34997863,18.4157018 L9.002,18.41 L6.874,18.36 Z M25.04,22.832 C24.2306413,22.832 23.5272892,23.0916993 22.9277638,23.6117694 C22.3830894,24.0842581 22.0198066,24.7547455 21.8012589,25.5813703 L21.74,25.834 L27.91605,25.8862366 C27.8725646,24.915061 27.5909353,24.1640497 27.0721637,23.6308677 C26.5539028,23.0982107 25.8775837,22.832 25.04,22.832 Z" id="Deg" fill="#000000" fill-rule="nonzero"></path>
    </g>
</svg>