<?xml version="1.0" encoding="UTF-8"?>
<svg width="48px" height="48px" viewBox="0 0 48 48" version="1.1" xmlns="http://www.w3.org/2000/svg" xmlns:xlink="http://www.w3.org/1999/xlink">
    <title>svg4_4</title>
    <g id="4_4" stroke="none" stroke-width="1" fill="none" fill-rule="evenodd">
        <path d="M24.037671,19.3404348 C25.1339419,19.3404348 26.0952242,19.5981403 26.9215179,20.1135512 C27.7478117,20.6289621 28.3818489,21.3284484 28.8236297,22.21201 C29.2654105,23.0955716 29.4863009,24.0773068 29.4863009,25.1572154 C29.4863009,25.6153584 29.4535764,26.0325959 29.3881274,26.4089277 L29.3881274,26.4089277 L20.208904,26.4089277 L20.2297386,26.6952125 C20.3478377,28.0080469 20.7581303,28.9966178 21.4606163,29.6609253 C22.2132799,30.3726832 23.1622905,30.7285622 24.3076482,30.7285622 C25.7311641,30.7285622 26.761986,30.1558834 27.4001138,29.0105257 L27.4001138,29.0105257 L28.9954334,29.9186307 L28.9077419,30.13134 C28.564646,30.8962753 27.9843826,31.4962245 27.1669517,31.9311877 C26.275209,32.405693 25.2812022,32.6429457 24.1849313,32.6429457 C23.0395736,32.6429457 21.9964801,32.3811497 21.0556506,31.8575576 C20.1148211,31.3339655 19.3703386,30.5690303 18.8222032,29.5627518 C18.2740677,28.5564733 18,27.3497572 18,25.9426035 C18,24.5845366 18.2740677,23.4064544 18.8222032,22.408357 C19.3703386,21.4102597 20.1025494,20.6494149 21.0188355,20.1258229 C21.9351216,19.6022308 22.9414001,19.3404348 24.037671,19.3404348 Z M23.9640409,21.2548183 C23.0477548,21.2548183 22.250095,21.5493388 21.5710615,22.1383799 C20.8920281,22.727421 20.4625189,23.5864392 20.2825342,24.7154346 L20.2825342,24.7154346 L27.2283102,24.7154346 C27.1792234,23.6191637 26.8601595,22.7683266 26.2711184,22.1629233 C25.6820773,21.5575199 24.9130515,21.2548183 23.9640409,21.2548183 Z M32.2036466,16.21 L34.3242637,19.2259888 L36.4762973,16.21 L38,16.21 L35.0468443,20.2627349 L38,24.3625947 L36.3663394,24.3625947 L34.2614306,21.3466059 L32.0936886,24.3625947 L30.5385694,24.3625947 L33.5231417,20.325568 L30.5385694,16.21 L32.2036466,16.21 Z" id="形状结合" fill="#000000" fill-rule="nonzero"></path>
    </g>
</svg>