<?xml version="1.0" encoding="UTF-8"?>
<svg width="48px" height="48px" viewBox="0 0 48 48" version="1.1" xmlns="http://www.w3.org/2000/svg" xmlns:xlink="http://www.w3.org/1999/xlink">
    <title>svg4_5</title>
    <g id="4_5" stroke="none" stroke-width="1" fill="none" fill-rule="evenodd">
        <path d="M26.58,16.78 C28.202575,16.78 29.4477249,17.4572487 30.3154497,18.811746 C31.1831746,20.1662434 31.617037,22.162716 31.617037,24.801164 C31.617037,27.4255026 31.1831746,29.4113933 30.3154497,30.758836 C29.4477249,32.1062787 28.202575,32.78 26.58,32.78 C24.9715344,32.78 23.7334392,32.1027513 22.8657143,30.748254 C21.9979894,29.3937566 21.564127,27.4113933 21.564127,24.801164 C21.564127,22.1768254 21.9979894,20.1838801 22.8657143,18.822328 C23.7334392,17.460776 24.9715344,16.78 26.58,16.78 Z M16.5270899,17.0339683 L16.5270899,32.5471958 L14.622328,32.5471958 L14.622328,19.2985185 L10.58,21.6053968 L10.58,19.6583069 L15.0879365,17.0339683 L16.5270899,17.0339683 Z M26.58,18.4942857 C25.5500176,18.4942857 24.7916402,19.0128042 24.3048677,20.0498413 C23.8180952,21.0868783 23.574709,22.6706526 23.574709,24.801164 C23.574709,26.9034568 23.8180952,28.4695944 24.3048677,29.4995767 C24.7916402,30.5295591 25.5500176,31.0445503 26.58,31.0445503 C27.6099824,31.0445503 28.3718871,30.5330864 28.8657143,29.5101587 C29.3595414,28.487231 29.606455,26.9175661 29.606455,24.801164 C29.606455,22.6706526 29.3595414,21.0868783 28.8657143,20.0498413 C28.3718871,19.0128042 27.6099824,18.4942857 26.58,18.4942857 Z M34.9440212,17.2350265 L36.9440212,20.0794709 L38.9736508,17.2350265 L40.4106878,17.2350265 L37.6255026,21.0572487 L40.4106878,24.9239153 L38.8699471,24.9239153 L36.8847619,22.0794709 L34.8403175,24.9239153 L33.3736508,24.9239153 L36.1884656,21.1165079 L33.3736508,17.2350265 L34.9440212,17.2350265 Z" id="形状结合" fill="#000000" fill-rule="nonzero"></path>
    </g>
</svg>