<?xml version="1.0" encoding="UTF-8"?>
<svg width="34px" height="34px" viewBox="0 0 34 34" version="1.1" xmlns="http://www.w3.org/2000/svg" xmlns:xlink="http://www.w3.org/1999/xlink">
    <title>ic/Calculator</title>
    <g id="页面-1" stroke="none" stroke-width="1" fill="none" fill-rule="evenodd" fill-opacity="0.7">
        <g id="小工具锁屏卡片" transform="translate(-124.000000, -368.000000)" fill="#FFFFFF" fill-rule="nonzero">
            <g id="计算器" transform="translate(114.000000, 358.000000)">
                <g id="ic/Calculator" transform="translate(10.000000, 10.000000)">
                    <path d="M22.1629728,2 C24.4897735,2 25.3650818,2.23441914 26.2161067,2.67521883 L26.2715885,2.70425895 C27.0993369,3.14191312 27.7574409,3.77441066 28.2197686,4.57591656 L28.2876461,4.69740678 C28.752465,5.55666604 29,6.40896612 29,8.75933371 L29,24.2406663 L28.9986576,24.5326912 C28.9789868,26.6162295 28.7435009,27.4429683 28.31702,28.2477418 L28.2876461,28.3025932 C27.8449614,29.1209354 27.2051938,29.7715609 26.3944752,30.2286348 L26.2715885,30.2957411 C25.4024527,30.7552779 24.5403561,31 22.1629728,31 L11.8370272,31 L11.5416457,30.9986729 C9.43415865,30.9792256 8.5979171,30.7464157 7.78389331,30.3247812 L7.72841146,30.2957411 C6.90066307,29.8580869 6.24255908,29.2255893 5.78023143,28.4240834 L5.71235388,28.3025932 C5.24753496,27.443334 5,26.5910339 5,24.2406663 L5,8.75933371 C5,6.45897394 5.23711362,5.59361229 5.68297996,4.75225816 L5.71235388,4.69740678 C6.15503856,3.87906463 6.79480618,3.22843909 7.6055248,2.77136517 L7.72841146,2.70425895 C8.59754726,2.24472207 9.45964389,2 11.8370272,2 L22.1629728,2 Z M11.8571429,21.5844156 C11.2259603,21.5844156 10.7142857,22.0902757 10.7142857,22.7142857 C10.7142857,23.3382958 11.2259603,23.8441558 11.8571429,23.8441558 C12.4883254,23.8441558 13,23.3382958 13,22.7142857 C13,22.0902757 12.4883254,21.5844156 11.8571429,21.5844156 Z M17,21.5844156 C16.3688174,21.5844156 15.8571429,22.0902757 15.8571429,22.7142857 C15.8571429,23.3382958 16.3688174,23.8441558 17,23.8441558 C17.6311826,23.8441558 18.1428571,23.3382958 18.1428571,22.7142857 C18.1428571,22.0902757 17.6311826,21.5844156 17,21.5844156 Z M22.1428571,21.5844156 C21.5116746,21.5844156 21,22.0902757 21,22.7142857 C21,23.3382958 21.5116746,23.8441558 22.1428571,23.8441558 C22.7740397,23.8441558 23.2857143,23.3382958 23.2857143,22.7142857 C23.2857143,22.0902757 22.7740397,21.5844156 22.1428571,21.5844156 Z M11.8571429,17.0649351 C11.2259603,17.0649351 10.7142857,17.5707952 10.7142857,18.1948052 C10.7142857,18.8188152 11.2259603,19.3246753 11.8571429,19.3246753 C12.4883254,19.3246753 13,18.8188152 13,18.1948052 C13,17.5707952 12.4883254,17.0649351 11.8571429,17.0649351 Z M17,17.0649351 C16.3688174,17.0649351 15.8571429,17.5707952 15.8571429,18.1948052 C15.8571429,18.8188152 16.3688174,19.3246753 17,19.3246753 C17.6311826,19.3246753 18.1428571,18.8188152 18.1428571,18.1948052 C18.1428571,17.5707952 17.6311826,17.0649351 17,17.0649351 Z M22.1428571,17.0649351 C21.5116746,17.0649351 21,17.5707952 21,18.1948052 C21,18.8188152 21.5116746,19.3246753 22.1428571,19.3246753 C22.7740397,19.3246753 23.2857143,18.8188152 23.2857143,18.1948052 C23.2857143,17.5707952 22.7740397,17.0649351 22.1428571,17.0649351 Z M21.5714286,9.15584416 L12.4285714,9.15584416 C11.4817976,9.15584416 10.7142857,9.92335601 10.7142857,10.8701299 L10.7142857,11.961039 C10.7142857,12.9078128 11.4817976,13.6753247 12.4285714,13.6753247 L21.5714286,13.6753247 C22.5182024,13.6753247 23.2857143,12.9078128 23.2857143,11.961039 L23.2857143,10.8701299 C23.2857143,9.92335601 22.5182024,9.15584416 21.5714286,9.15584416 Z" id="形状结合备份" style="mix-blend-mode: lighten;"></path>
                </g>
            </g>
        </g>
    </g>
</svg>