<?xml version="1.0" encoding="UTF-8"?>
<svg width="48px" height="48px" viewBox="0 0 48 48" version="1.1" xmlns="http://www.w3.org/2000/svg" xmlns:xlink="http://www.w3.org/1999/xlink">
    <title>svg3_1</title>
    <g id="3_1" stroke="none" stroke-width="1" fill="none" fill-rule="evenodd">
        <path d="M19.3142857,31.7428571 L22.5402597,27.2545455 L25.6727273,31.7428571 L28.1038961,31.7428571 L23.7090909,25.6415584 L28.1038961,19.6103896 L25.8363636,19.6103896 L22.6337662,24.0987013 L19.4779221,19.6103896 L17,19.6103896 L21.4415584,25.7350649 L17,31.7428571 L19.3142857,31.7428571 Z M31.8207792,26.9272727 L32.1246753,14 L30.0441558,14 L30.3480519,26.9272727 L31.8207792,26.9272727 Z M31.0961039,32 C31.4701299,32 31.7857143,31.8675325 32.0428571,31.6025974 C32.3,31.3376623 32.4285714,31.025974 32.4285714,30.6675325 C32.4285714,30.2935065 32.3,29.974026 32.0428571,29.7090909 C31.7857143,29.4441558 31.4701299,29.3116883 31.0961039,29.3116883 C30.7376623,29.3116883 30.4298701,29.4441558 30.1727273,29.7090909 C29.9155844,29.974026 29.787013,30.2935065 29.787013,30.6675325 C29.787013,31.025974 29.9155844,31.3376623 30.1727273,31.6025974 C30.4298701,31.8675325 30.7376623,32 31.0961039,32 Z" id="x!" fill="#000000" fill-rule="nonzero"></path>
    </g>
</svg>