<?xml version="1.0" encoding="UTF-8"?>
<svg width="40px" height="40px" viewBox="0 0 40 40" version="1.1" xmlns="http://www.w3.org/2000/svg" xmlns:xlink="http://www.w3.org/1999/xlink">
    <title>Public/ic_public_history</title>
    <g id="Public/ic_public_history" stroke="none" stroke-width="1" fill="none" fill-rule="evenodd">
        <g id="Public/ic_public_history" transform="translate(-12, -44)" fill="#000000">
            <g id="Public/ic_public_history" transform="translate(12, 44)">
                <g id="Public/ic_public_history" transform="translate(9, 9)" fill-opacity="0.9" fill-rule="nonzero">
                    <path d="M0.6585231,14.7576235 C0.6585231,14.7576235 0.6585231,14.7576235 0.6585231,14.7576235 C0.2324059,13.58516 0,12.3197207 0,11 L2.85188895,11 C3.12803133,11 3.35188895,11.2238576 3.35188895,11.5 C3.35188895,11.5930667 3.32591424,11.6842863 3.27688806,11.7633928 L1.37525372,14.831787 C1.25875315,15.0197728 1.0119174,15.0777198 0.82393313,14.9612167 C0.74750189,14.9138485 0.68923756,14.8421345 0.6585231,14.7576235 Z M0.17630502,12.9714637 C0.05930655,12.3251822 0,11.6661847 0,11 C0,4.92486775 4.92486775,0 11,0 C11.7825368,0 12.55498,0.08183322 13.3082773,0.24274766 C18.3440943,1.31846601 22,5.78563595 22,11 C22,17.0751322 17.0751322,22 11,22 C9.9082565,22 8.83703238,21.8407032 7.81152695,21.530585 C6.29798993,21.0728837 4.90520565,20.2926603 3.72336629,19.2494437 C3.41282767,18.9753294 3.38329989,18.5013746 3.65741417,18.190836 C3.93152845,17.8802974 4.40548327,17.8507696 4.7160219,18.1248839 C5.73707421,19.0261728 6.93963138,19.6998329 8.24571587,20.0947995 C9.1308045,20.3624549 10.0557546,20.5 11,20.5 C16.2467051,20.5 20.5,16.2467051 20.5,11 C20.5,6.496884 17.3421377,2.63827588 12.9949266,1.70965302 C12.3444703,1.57070679 11.677052,1.5 11,1.5 C5.75329488,1.5 1.5,5.75329488 1.5,11 C1.5,11.5764741 1.55125879,12.1460473 1.65231335,12.7042571 C1.72610043,13.1118455 1.45550096,13.5020775 1.04791251,13.5758645 C0.64032406,13.6496516 0.2500921,13.3790522 0.17630502,12.9714637 Z M11,4 C11.4142136,4 11.75,4.33578644 11.75,4.75 L11.75,11 C11.75,11.4142136 11.4142136,11.75 11,11.75 C10.5857864,11.75 10.25,11.4142136 10.25,11 L10.25,4.75 C10.25,4.33578644 10.5857864,4 11,4 Z M12.6355698,11.6237513 L16.6675144,15.6568542 C16.9604076,15.9497475 16.9604076,16.4246212 16.6675144,16.7175144 C16.3746212,17.0104076 15.8997475,17.0104076 15.6068542,16.7175144 L11.5511741,12.6614355 C12.0498871,12.4960746 12.4490911,12.1124411 12.6355698,11.6237513 Z M11.5409903,10.5303301 L11.7496841,10.7386602 L11.75,11 C11.75,11.4142136 11.4142136,11.75 11,11.75 C10.6348942,11.75 10.3307218,11.4891133 10.2637303,11.1435875 C10.2411709,10.9246857 10.3128894,10.6977708 10.4803301,10.5303301 C10.7732233,10.2374369 11.248097,10.2374369 11.5409903,10.5303301 Z" id="path-1"></path>
                </g>
            </g>
        </g>
    </g>
</svg>