<?xml version="1.0" encoding="UTF-8"?>
<svg width="48px" height="48px" viewBox="0 0 48 48" version="1.1" xmlns="http://www.w3.org/2000/svg" xmlns:xlink="http://www.w3.org/1999/xlink">
    <title>svg6_1</title>
    <g id="6_1" stroke="none" stroke-width="1" fill="none" fill-rule="evenodd">
        <path d="M12.036,32.816 L12.036,15.248 L9.9,15.248 L9.9,32.816 L12.036,32.816 Z M18.012,32.816 L18.012,25.736 C18.012,24.92 18.18,24.236 18.516,23.684 C18.852,23.132 19.288,22.716 19.824,22.436 C20.36,22.156 20.932,22.016 21.54,22.016 C22.468,22.016 23.168,22.336 23.64,22.976 C24.112,23.616 24.348,24.528 24.348,25.712 L24.348,25.712 L24.348,32.816 L26.388,32.816 L26.388,25.136 C26.388,23.52 25.988,22.272 25.188,21.392 C24.388,20.512 23.324,20.072 21.996,20.072 C21.116,20.072 20.32,20.272 19.608,20.672 C18.896,21.072 18.332,21.656 17.916,22.424 C17.852,21.848 17.804,21.16 17.772,20.36 L17.772,20.36 L15.972,20.36 L15.972,32.816 L18.012,32.816 Z M34.932,32.816 L39.948,20.36 L37.836,20.36 L34.236,30.104 L30.396,20.36 L28.068,20.36 L33.276,32.816 L34.932,32.816 Z" id="Inv" fill="#000000" fill-rule="nonzero"></path>
    </g>
</svg>