<?xml version="1.0" encoding="UTF-8"?>
<svg width="48px" height="48px" viewBox="0 0 48 48" version="1.1" xmlns="http://www.w3.org/2000/svg" xmlns:xlink="http://www.w3.org/1999/xlink">
    <title>svg1_1</title>
    <g id="1_1" stroke="none" stroke-width="1" fill="none" fill-rule="evenodd">
        <path d="M26.7327667,34.8464667 C25.4720663,33.3259483 24.5031947,31.6628814 23.8261519,29.8572658 C23.1491091,28.0516503 22.8105877,26.0480505 22.8105877,23.8464667 C22.8105877,21.6607215 23.1491091,19.6690009 23.8261519,17.8713047 C24.5031947,16.0736085 25.4720663,14.3986625 26.7327667,12.8464667 L26.7327667,12.8464667 L24.8417161,12.8464667 C23.5654515,14.1610815 22.5615604,15.7647532 21.8300429,17.6574818 C21.0985254,19.5502104 20.7327667,21.6132053 20.7327667,23.8464667 C20.7327667,26.0955667 21.0985254,28.1625214 21.8300429,30.0473306 C22.5615604,31.9321398 23.5654515,33.5318518 24.8417161,34.8464667 L24.8417161,34.8464667 L26.7327667,34.8464667 Z" id="（" fill="#000000" fill-rule="nonzero"></path>
    </g>
</svg>