<?xml version="1.0" encoding="UTF-8"?>
<svg width="48px" height="48px" viewBox="0 0 48 48" version="1.1" xmlns="http://www.w3.org/2000/svg" xmlns:xlink="http://www.w3.org/1999/xlink">
    <title>svg4_2</title>
    <g id="4_2" stroke="none" stroke-width="1" fill="none" fill-rule="evenodd">
        <path d="M18.608,32.816 L18.608,15.248 L16.472,15.248 L16.472,32.816 L18.608,32.816 Z M24.584,32.816 L24.584,25.736 C24.584,24.92 24.752,24.236 25.088,23.684 C25.424,23.132 25.86,22.716 26.396,22.436 C26.932,22.156 27.504,22.016 28.112,22.016 C29.04,22.016 29.74,22.336 30.212,22.976 C30.684,23.616 30.92,24.528 30.92,25.712 L30.92,25.712 L30.92,32.816 L32.96,32.816 L32.96,25.136 C32.96,23.52 32.56,22.272 31.76,21.392 C30.96,20.512 29.896,20.072 28.568,20.072 C27.688,20.072 26.892,20.272 26.18,20.672 C25.468,21.072 24.904,21.656 24.488,22.424 C24.424,21.848 24.376,21.16 24.344,20.36 L24.344,20.36 L22.544,20.36 L22.544,32.816 L24.584,32.816 Z" id="In" fill="#000000" fill-rule="nonzero"></path>
    </g>
</svg>