<?xml version="1.0" encoding="UTF-8"?>
<svg width="48px" height="48px" viewBox="0 0 48 48" version="1.1" xmlns="http://www.w3.org/2000/svg" xmlns:xlink="http://www.w3.org/1999/xlink">
    <title>svg4_3</title>
    <g id="4_3" stroke="none" stroke-width="1" fill="none" fill-rule="evenodd">
        <path d="M11.2005,30.782 L11.2005,13.279 L9.2455,13.279 L9.2455,30.782 L11.2005,30.782 Z M19.7795,31.035 C20.7915,31.035 21.7345,30.7705 22.6085,30.2415 C23.4825,29.7125 24.1801667,28.9765 24.7015,28.0335 C25.2228333,27.0905 25.4835,26.0133333 25.4835,24.802 C25.4835,23.5906667 25.2228333,22.5096667 24.7015,21.559 C24.1801667,20.6083333 23.4825,19.8723333 22.6085,19.351 C21.7345,18.8296667 20.7915,18.569 19.7795,18.569 C18.7675,18.569 17.8245,18.8335 16.9505,19.3625 C16.0765,19.8915 15.375,20.6313333 14.846,21.582 C14.317,22.5326667 14.0525,23.606 14.0525,24.802 C14.0525,26.0133333 14.3131667,27.0905 14.8345,28.0335 C15.3558333,28.9765 16.0573333,29.7125 16.939,30.2415 C17.8206667,30.7705 18.7675,31.035 19.7795,31.035 Z M19.7795,29.195 C19.0895,29.195 18.4685,29.0186667 17.9165,28.666 C17.3645,28.3133333 16.9275,27.8073333 16.6055,27.148 C16.2835,26.4886667 16.1225,25.7066667 16.1225,24.802 C16.1225,23.8973333 16.2835,23.1153333 16.6055,22.456 C16.9275,21.7966667 17.3645,21.2906667 17.9165,20.938 C18.4685,20.5853333 19.0895,20.409 19.7795,20.409 C20.4695,20.409 21.0905,20.5853333 21.6425,20.938 C22.1945,21.2906667 22.6276667,21.7966667 22.942,22.456 C23.2563333,23.1153333 23.4135,23.8973333 23.4135,24.802 C23.4135,25.7066667 23.2563333,26.4886667 22.942,27.148 C22.6276667,27.8073333 22.1945,28.3133333 21.6425,28.666 C21.0905,29.0186667 20.4695,29.195 19.7795,29.195 Z M33.1655,36.21 C34.1008333,36.21 34.9863333,36.0106667 35.822,35.612 C36.6576667,35.2133333 37.3553333,34.5271667 37.915,33.5535 C38.4746667,32.5798333 38.7545,31.2956667 38.7545,29.701 L38.7545,29.701 L38.7545,18.822 L37.0295,18.822 C37.0141667,19.4506667 36.9681667,20.1253333 36.8915,20.846 C36.4621667,20.0946667 35.891,19.5273333 35.178,19.144 C34.465,18.7606667 33.7098333,18.569 32.9125,18.569 C32.0078333,18.569 31.1491667,18.8143333 30.3365,19.305 C29.5238333,19.7956667 28.8721667,20.5163333 28.3815,21.467 C27.8908333,22.4176667 27.6455,23.5293333 27.6455,24.802 C27.6455,26.0746667 27.8946667,27.1825 28.393,28.1255 C28.8913333,29.0685 29.543,29.7891667 30.348,30.2875 C31.153,30.7858333 32.0078333,31.035 32.9125,31.035 C33.6945,31.035 34.4266667,30.8625 35.109,30.5175 C35.7913333,30.1725 36.3548333,29.6473333 36.7995,28.942 L36.7995,28.942 L36.7995,29.655 C36.7995,32.7983333 35.5958333,34.37 33.1885,34.37 C31.4711667,34.37 30.3135,33.7183333 29.7155,32.415 L29.7155,32.415 L28.1285,33.312 C28.4658333,34.232 29.0945,34.945 30.0145,35.451 C30.9345,35.957 31.9848333,36.21 33.1655,36.21 Z M33.1425,29.195 C32.0998333,29.195 31.2641667,28.8116667 30.6355,28.045 C30.0068333,27.2783333 29.6925,26.1973333 29.6925,24.802 C29.6925,23.422 30.0068333,22.3486667 30.6355,21.582 C31.2641667,20.8153333 32.0998333,20.432 33.1425,20.432 C34.1391667,20.432 34.9978333,20.7846667 35.7185,21.49 C36.4391667,22.1953333 36.7995,23.2993333 36.7995,24.802 C36.7995,26.32 36.4391667,27.4316667 35.7185,28.137 C34.9978333,28.8423333 34.1391667,29.195 33.1425,29.195 Z" id="log" fill="#000000" fill-rule="nonzero"></path>
    </g>
</svg>