<?xml version="1.0" encoding="UTF-8"?>
<svg width="48px" height="48px" viewBox="0 0 48 48" version="1.1" xmlns="http://www.w3.org/2000/svg" xmlns:xlink="http://www.w3.org/1999/xlink">
    <title>svg4_1</title>
    <g id="4_1" stroke="none" stroke-width="1" fill="none" fill-rule="evenodd">
        <path d="M24.0442804,31 C25.1156212,31 26.0870234,30.7681427 26.9584871,30.304428 C27.8299508,29.8407134 28.4255843,29.1851169 28.7453875,28.3376384 L28.7453875,28.3376384 L27.1863469,27.4501845 C26.5627306,28.5694957 25.5553506,29.1291513 24.1642066,29.1291513 C23.0448954,29.1291513 22.1174662,28.7813653 21.3819188,28.0857934 C20.6463715,27.3902214 20.2386224,26.3308733 20.1586716,24.9077491 L20.1586716,24.9077491 L29.1291513,24.9077491 C29.1931119,24.5399754 29.2250923,24.1322263 29.2250923,23.6845018 C29.2250923,22.6291513 29.0092251,21.6697417 28.5774908,20.8062731 C28.1457565,19.9428044 27.5261378,19.2592251 26.7186347,18.7555351 C25.9111316,18.251845 24.9717097,18 23.900369,18 C22.8290283,18 21.8456335,18.2558426 20.9501845,18.7675277 C20.0547355,19.2792128 19.3391759,20.0227552 18.8035055,20.998155 C18.2678352,21.9735547 18,23.1248462 18,24.4520295 C18,25.8271833 18.2678352,27.0064576 18.8035055,27.9898524 C19.3391759,28.9732472 20.0667282,29.7207872 20.9861624,30.2324723 C21.9055966,30.7441574 22.9249692,31 24.0442804,31 Z M27.0184502,23.2527675 L20.2306273,23.2527675 C20.4065191,22.1494465 20.8262608,21.3099631 21.4898524,20.7343173 C22.153444,20.1586716 22.9329643,19.8708487 23.8284133,19.8708487 C24.7558426,19.8708487 25.5073801,20.1666667 26.0830258,20.7583026 C26.6586716,21.3499385 26.9704797,22.1814268 27.0184502,23.2527675 L27.0184502,23.2527675 Z" id="e" fill="#000000" fill-rule="nonzero"></path>
    </g>
</svg>