<?xml version="1.0" encoding="UTF-8"?>
<svg width="48px" height="48px" viewBox="0 0 48 48" version="1.1" xmlns="http://www.w3.org/2000/svg" xmlns:xlink="http://www.w3.org/1999/xlink">
    <title>svg6_3</title>
    <g id="6_3" stroke="none" stroke-width="1" fill="none" fill-rule="evenodd">
        <path d="M29.428,33.08 C30.1,33.08 30.692,32.952 31.204,32.696 L31.204,32.696 L30.94,30.944 C30.684,31.088 30.356,31.16 29.956,31.16 C29.54,31.16 29.22,31.032 28.996,30.776 C28.772,30.52 28.66,30.072 28.66,29.432 L28.66,29.432 L28.66,22.112 L30.916,22.112 L30.916,20.336 L17.5,20.336 L17.5,22.112 L19.732,22.112 L19.732,32.816 L21.772,32.816 L21.772,22.112 L26.62,22.112 L26.62,29.72 C26.62,30.84 26.844,31.68 27.292,32.24 C27.74,32.8 28.452,33.08 29.428,33.08 Z" id="π" fill="#000000" fill-rule="nonzero"></path>
    </g>
</svg>