<?xml version="1.0" encoding="UTF-8"?>
<svg width="48px" height="48px" viewBox="0 0 48 48" version="1.1" xmlns="http://www.w3.org/2000/svg" xmlns:xlink="http://www.w3.org/1999/xlink">
    <title>svg2_3</title>
    <g id="2_3" stroke="none" stroke-width="1" fill="none" fill-rule="evenodd">
        <path d="M15.808,20.491604 L19.048,25.099604 L22.336,20.491604 L24.664,20.491604 L20.152,26.683604 L24.664,32.947604 L22.168,32.947604 L18.952,28.339604 L15.64,32.947604 L13.264,32.947604 L17.824,26.779604 L13.264,20.491604 L15.808,20.491604 Z M28.1668,14.179032 L30.6308,20.547032 L32.9508,14.179032 L34.6628,14.179032 L30.9668,23.523032 L30.8557917,23.7918584 C30.4842215,24.6628226 30.0972242,25.2825472 29.6948,25.651032 C29.2521333,26.0563653 28.6628,26.259032 27.9268,26.259032 C27.2761333,26.259032 26.7481333,26.1043653 26.3428,25.795032 L26.3428,25.795032 L26.9828,24.451032 L27.0921878,24.5316851 C27.3194531,24.680583 27.5976571,24.755032 27.9268,24.755032 C28.1508,24.755032 28.3481333,24.7096987 28.5188,24.619032 C28.6894667,24.5283653 28.8654667,24.3523653 29.0468,24.091032 C29.2281333,23.8296987 29.4308,23.4376987 29.6548,22.915032 L29.6548,22.915032 L29.7988,22.595032 L26.2948,14.179032 L28.1668,14.179032 Z" id="形状结合" fill="#000000" fill-rule="nonzero"></path>
    </g>
</svg>