<?xml version="1.0" encoding="UTF-8"?>
<svg width="48px" height="48px" viewBox="0 0 48 48" version="1.1" xmlns="http://www.w3.org/2000/svg" xmlns:xlink="http://www.w3.org/1999/xlink">
    <title>svg1_2</title>
    <g id="1_2" stroke="none" stroke-width="1" fill="none" fill-rule="evenodd">
        <path d="M22.8910506,35 C24.1673152,33.6853852 25.1712062,32.0817135 25.9027237,30.1889849 C26.6342412,28.2962563 27,26.2332613 27,24 C27,21.7508999 26.6342412,19.6839453 25.9027237,17.7991361 C25.1712062,15.9143269 24.1673152,14.3146148 22.8910506,13 L22.8910506,13 L21,13 C22.2607004,14.5205184 23.229572,16.1835853 23.9066148,17.9892009 C24.5836576,19.7948164 24.922179,21.7984161 24.922179,24 C24.922179,26.1857451 24.5836576,28.1774658 23.9066148,29.975162 C23.229572,31.7728582 22.2607004,33.4478042 21,35 L21,35 L22.8910506,35 Z" id="）" fill="#000000" fill-rule="nonzero"></path>
    </g>
</svg>