<?xml version="1.0" encoding="UTF-8"?>
<svg width="48px" height="48px" viewBox="0 0 48 48" version="1.1" xmlns="http://www.w3.org/2000/svg" xmlns:xlink="http://www.w3.org/1999/xlink">
    <title>svg6_4备份</title>
    <g id="6_4备份" stroke="none" stroke-width="1" fill="none" fill-rule="evenodd">
        <path d="M24.0172686,21.07848 C25.3129992,21.07848 26.3754111,21.4731955 27.2017049,22.2626012 C27.9738251,23.0002517 28.3851986,24.0295101 28.4366168,25.3476936 L28.4421257,25.6345829 L28.3921257,32.7937257 L26.7016409,32.7466678 L26.6595633,31.9811822 L26.6544581,31.695659 C26.6566042,31.5274229 26.6711981,31.403756 26.7063316,31.3267225 C26.3513374,31.8887967 25.8739076,32.3144123 25.2748565,32.6028444 C24.6772112,32.8905995 23.9953518,33.0343429 23.2297943,33.0343429 C22.4940213,33.0343429 21.8056148,32.8981341 21.1649803,32.6256804 C20.5222577,32.3523386 20.0081426,31.9454849 19.6235614,31.405592 C19.2381517,30.8645361 19.0455543,30.2163717 19.0455543,29.4625829 C19.0455543,28.3235458 19.5090785,27.4224548 20.4336969,26.7641265 C21.3542355,26.108703 22.5419014,25.7814514 23.9953943,25.7814514 C24.6989676,25.7814514 25.4238688,25.8621916 26.1309419,26.0541672 L26.4828114,26.1595657 L26.4828188,25.9635573 L26.4783612,25.7040144 C26.4458562,24.7801028 26.2354151,24.0862234 25.8490646,23.6212931 C25.4291695,23.1159956 24.7908313,22.8628 23.9297714,22.8628 C23.2386514,22.8628 22.6644749,23.0063441 22.2063285,23.2926856 C21.8045055,23.543825 21.4571761,23.8998284 21.1185891,24.3738873 L20.9738822,24.5843218 L19.5317527,23.7097998 L19.6441268,23.4768538 C20.0035269,22.7879482 20.545231,22.2276449 21.2683112,21.7964503 C22.0710307,21.3177643 22.9876737,21.07848 24.0172686,21.07848 Z M41.40088,16.0473943 L41.45088,16.0973943 L41.40088,32.7937257 L39.7103529,32.7458306 L39.6578379,31.5642629 C39.6499019,31.2993123 39.6509627,31.0581731 39.6726882,30.8432187 C39.2597535,31.580602 38.7095861,32.1307694 38.0227355,32.4926584 C37.3374671,32.8537138 36.6112647,33.0343429 35.8448114,33.0343429 C34.9605994,33.0343429 34.1313203,32.798459 33.3579311,32.3270599 C32.5842859,31.8555047 31.9619569,31.1668921 31.4912222,30.262199 C31.0206606,29.3578383 30.7856,28.2890473 30.7856,27.0564114 C30.7856,25.8383389 31.0206739,24.7768331 31.4912222,23.8724982 C31.9619085,22.9678979 32.5841384,22.2757133 33.3576366,21.796881 C34.1310832,21.3180807 34.9604703,21.07848 35.8448114,21.07848 C36.5818882,21.07848 37.2823701,21.2480704 37.9456241,21.5870668 C38.5435734,21.8926854 39.0458267,22.3358097 39.3847378,22.9352759 L39.4915657,23.1409143 L39.5415657,16.0473943 L41.40088,16.0473943 Z M10.7405893,16.6817486 L11.1017411,16.689082 C12.0565058,16.7282295 12.9162891,16.9241295 13.6807472,17.2769563 C14.542153,17.6745282 15.2129563,18.2384453 15.6921506,18.9682951 C16.1715604,19.6984731 16.4112686,20.5356077 16.4112686,21.4784686 C16.4112686,22.539361 16.1087417,23.4580097 15.5038298,24.2325921 C14.9498835,24.9419135 14.2042386,25.4683771 13.2874532,25.7526222 L13.0331931,25.8240935 L17.9580914,32.7937257 L15.532961,32.7725812 L10.9364457,26.23144 L7.81467429,26.18144 L7.76467429,32.7937257 L5.76786286,32.7437257 L5.81786286,16.6817486 L10.7405893,16.6817486 Z M24.0172686,27.4126514 C23.0788623,27.4126514 22.3559065,27.5924912 21.8476918,27.9503889 C21.3434432,28.3054935 21.0923657,28.8005759 21.0923657,29.4407086 C21.0923657,30.0382333 21.3043999,30.5011747 21.7294274,30.8341129 C22.1575075,31.1694423 22.7153824,31.33752 23.4047886,31.33752 C24.25385,31.33752 24.9790275,31.0898108 25.5823545,30.5942208 C26.1328225,30.1420507 26.4307331,29.5312828 26.4765622,28.7586088 L26.4828114,28.5438629 L26.5211977,27.7612725 L26.1330903,27.6685845 C25.368681,27.4979257 24.6633915,27.4126514 24.0172686,27.4126514 Z M36.0635543,22.9502971 C35.0866847,22.9502971 34.3061787,23.3083275 33.7179205,24.0257154 C33.1281028,24.7450053 32.8324114,25.7546831 32.8324114,27.0564114 C32.8324114,28.3727416 33.12813,29.389725 33.7179205,30.1089817 C34.3061787,30.8263697 35.0866847,31.1844 36.0635543,31.1844 C36.9983223,31.1844 37.8024205,30.8541454 38.4785011,30.1924494 C39.1530086,29.5322932 39.4915657,28.4878085 39.4915657,27.0564114 C39.4915657,25.6396135 39.1530431,24.6024377 38.4785011,23.9422477 C37.8024205,23.2805517 36.9983223,22.9502971 36.0635543,22.9502971 Z M7.81467429,18.4379429 L7.76467429,24.4252457 L10.49896,24.4252457 C11.7276429,24.4252457 12.6606115,24.1550811 13.29946,23.6167256 C13.936911,23.0795477 14.2550857,22.3681235 14.2550857,21.4784686 C14.2550857,20.5886352 13.9367564,19.8697117 13.2989658,19.3179153 C12.709303,18.8077576 11.8691821,18.532234 10.7772027,18.4928645 L7.81467429,18.4379429 Z" id="Rad" fill="#000000" fill-rule="nonzero"></path>
    </g>
</svg>