<?xml version="1.0" encoding="UTF-8"?>
<svg width="48px" height="48px" viewBox="0 0 48 48" version="1.1" xmlns="http://www.w3.org/2000/svg" xmlns:xlink="http://www.w3.org/1999/xlink">
    <title>svg2_1</title>
    <g id="2_1" stroke="none" stroke-width="1" fill="none" fill-rule="evenodd">
        <path d="M17.376,32.904 L20.688,28.296 L23.904,32.904 L26.4,32.904 L21.888,26.64 L26.4,20.448 L24.072,20.448 L20.784,25.056 L17.544,20.448 L15,20.448 L19.56,26.736 L15,32.904 L17.376,32.904 Z M33.768,21.384 L33.768,19.992 L29.472,19.992 L31.872,17.328 C32.368,16.784 32.724,16.296 32.94,15.864 C33.156,15.432 33.264,15 33.264,14.568 C33.264,13.88 33.024,13.28 32.544,12.768 C32.064,12.256 31.376,12 30.48,12 C29.76,12 29.112,12.196 28.536,12.588 C27.96,12.98 27.552,13.536 27.312,14.256 L27.312,14.256 L28.512,14.952 C28.688,14.456 28.944,14.084 29.28,13.836 C29.616,13.588 29.984,13.464 30.384,13.464 C30.8,13.464 31.104,13.576 31.296,13.8 C31.488,14.024 31.584,14.312 31.584,14.664 C31.584,14.968 31.508,15.268 31.356,15.564 C31.204,15.86 30.928,16.224 30.528,16.656 L30.528,16.656 L27.24,20.328 L27.24,21.384 L33.768,21.384 Z" id="x2" fill="#000000" fill-rule="nonzero"></path>
    </g>
</svg>