<?xml version="1.0" encoding="UTF-8"?>
<svg width="48px" height="48px" viewBox="0 0 48 48" version="1.1" xmlns="http://www.w3.org/2000/svg" xmlns:xlink="http://www.w3.org/1999/xlink">
    <title>svg5_1</title>
    <g id="5_1" stroke="none" stroke-width="1" fill="none" fill-rule="evenodd">
        <path d="M14.28,32.08 C15.192,32.08 16,31.92 16.704,31.6 C17.408,31.28 17.956,30.832 18.348,30.256 C18.74,29.68 18.936,29.016 18.936,28.264 C18.936,27.48 18.74,26.848 18.348,26.368 C17.956,25.888 17.488,25.532 16.944,25.3 C16.4,25.068 15.688,24.832 14.808,24.592 C14.136,24.4 13.616,24.232 13.248,24.088 C12.88,23.944 12.572,23.752 12.324,23.512 C12.076,23.272 11.952,22.96 11.952,22.576 C11.952,22.048 12.164,21.644 12.588,21.364 C13.012,21.084 13.576,20.944 14.28,20.944 C14.968,20.944 15.564,21.092 16.068,21.388 C16.572,21.684 16.952,22.104 17.208,22.648 L17.208,22.648 L18.768,21.76 C18.496,20.928 17.968,20.272 17.184,19.792 C16.4,19.312 15.464,19.072 14.376,19.072 C13.544,19.072 12.78,19.22 12.084,19.516 C11.388,19.812 10.836,20.24 10.428,20.8 C10.02,21.36 9.816,22.016 9.816,22.768 C9.816,23.488 10,24.068 10.368,24.508 C10.736,24.948 11.184,25.28 11.712,25.504 C12.24,25.728 12.928,25.96 13.776,26.2 C14.48,26.408 15.028,26.588 15.42,26.74 C15.812,26.892 16.14,27.104 16.404,27.376 C16.668,27.648 16.8,28 16.8,28.432 C16.8,28.992 16.576,29.432 16.128,29.752 C15.68,30.072 15.064,30.232 14.28,30.232 C12.664,30.232 11.56,29.536 10.968,28.144 L10.968,28.144 L9.408,29.032 C9.68,29.976 10.256,30.72 11.136,31.264 C12.016,31.808 13.064,32.08 14.28,32.08 Z M22.488,17.128 C22.856,17.128 23.176,16.988 23.448,16.708 C23.72,16.428 23.856,16.104 23.856,15.736 C23.856,15.352 23.724,15.024 23.46,14.752 C23.196,14.48 22.872,14.344 22.488,14.344 C22.12,14.344 21.804,14.484 21.54,14.764 C21.276,15.044 21.144,15.368 21.144,15.736 C21.144,16.104 21.276,16.428 21.54,16.708 C21.804,16.988 22.12,17.128 22.488,17.128 Z M23.496,31.816 L23.496,19.36 L21.456,19.36 L21.456,31.816 L23.496,31.816 Z M29.28,31.816 L29.28,24.736 C29.28,23.92 29.448,23.236 29.784,22.684 C30.12,22.132 30.556,21.716 31.092,21.436 C31.628,21.156 32.2,21.016 32.808,21.016 C33.736,21.016 34.436,21.336 34.908,21.976 C35.38,22.616 35.616,23.528 35.616,24.712 L35.616,24.712 L35.616,31.816 L37.656,31.816 L37.656,24.136 C37.656,22.52 37.256,21.272 36.456,20.392 C35.656,19.512 34.592,19.072 33.264,19.072 C32.384,19.072 31.588,19.272 30.876,19.672 C30.164,20.072 29.6,20.656 29.184,21.424 C29.12,20.848 29.072,20.16 29.04,19.36 L29.04,19.36 L27.24,19.36 L27.24,31.816 L29.28,31.816 Z" id="sin" fill="#000000" fill-rule="nonzero"></path>
    </g>
</svg>