<?xml version="1.0" encoding="UTF-8"?>
<svg width="48px" height="48px" viewBox="0 0 48 48" version="1.1" xmlns="http://www.w3.org/2000/svg" xmlns:xlink="http://www.w3.org/1999/xlink">
    <title>svg5_3</title>
    <g id="5_3" stroke="none" stroke-width="1" fill="none" fill-rule="evenodd">
        <path d="M12.048,32.08 C13.072,32.08 13.912,31.856 14.568,31.408 L14.568,31.408 L13.896,29.728 C13.4,30.016 12.864,30.16 12.288,30.16 C10.976,30.16 10.32,29.288 10.32,27.544 L10.32,27.544 L10.32,21.112 L13.944,21.112 L13.944,19.336 L10.32,19.336 L10.32,15.856 L8.28,15.856 L8.28,19.336 L6.216,19.336 L6.216,21.112 L8.28,21.112 L8.28,27.784 C8.28,30.648 9.536,32.08 12.048,32.08 Z M20.568,32.08 C21.4,32.08 22.14,31.924 22.788,31.612 C23.436,31.3 23.952,30.84 24.336,30.232 C24.352,30.472 24.384,31 24.432,31.816 L24.432,31.816 L26.232,31.816 L26.232,24.016 C26.232,22.432 25.784,21.212 24.888,20.356 C23.992,19.5 22.84,19.072 21.432,19.072 C20.312,19.072 19.316,19.332 18.444,19.852 C17.572,20.372 16.944,21.064 16.56,21.928 L16.56,21.928 L18.12,22.816 C18.472,22.192 18.904,21.72 19.416,21.4 C19.928,21.08 20.568,20.92 21.336,20.92 C22.296,20.92 23.012,21.204 23.484,21.772 C23.956,22.34 24.192,23.208 24.192,24.376 L24.192,24.376 L24.192,24.592 C23.232,24.352 22.304,24.232 21.408,24.232 C19.824,24.232 18.532,24.588 17.532,25.3 C16.532,26.012 16.032,26.984 16.032,28.216 C16.032,29.032 16.24,29.732 16.656,30.316 C17.072,30.9 17.628,31.34 18.324,31.636 C19.02,31.932 19.768,32.08 20.568,32.08 Z M20.76,30.328 C19.992,30.328 19.368,30.14 18.888,29.764 C18.408,29.388 18.168,28.864 18.168,28.192 C18.168,27.472 18.452,26.912 19.02,26.512 C19.588,26.112 20.392,25.912 21.432,25.912 C22.264,25.912 23.184,26.04 24.192,26.296 L24.192,26.296 L24.192,27.208 C24.192,28.184 23.856,28.948 23.184,29.5 C22.512,30.052 21.704,30.328 20.76,30.328 Z M31.776,31.816 L31.776,24.736 C31.776,23.92 31.944,23.236 32.28,22.684 C32.616,22.132 33.052,21.716 33.588,21.436 C34.124,21.156 34.696,21.016 35.304,21.016 C36.232,21.016 36.932,21.336 37.404,21.976 C37.876,22.616 38.112,23.528 38.112,24.712 L38.112,24.712 L38.112,31.816 L40.152,31.816 L40.152,24.136 C40.152,22.52 39.752,21.272 38.952,20.392 C38.152,19.512 37.088,19.072 35.76,19.072 C34.88,19.072 34.084,19.272 33.372,19.672 C32.66,20.072 32.096,20.656 31.68,21.424 C31.616,20.848 31.568,20.16 31.536,19.36 L31.536,19.36 L29.736,19.36 L29.736,31.816 L31.776,31.816 Z" id="tan" fill="#000000" fill-rule="nonzero"></path>
    </g>
</svg>