<?xml version="1.0" encoding="UTF-8"?>
<svg width="48px" height="48px" viewBox="0 0 48 48" version="1.1" xmlns="http://www.w3.org/2000/svg" xmlns:xlink="http://www.w3.org/1999/xlink">
    <title>svg3_3</title>
    <g id="3_3" stroke="none" stroke-width="1" fill="none" fill-rule="evenodd">
        <path d="M35.172225,17.7337983 L35.222225,17.7837983 L35.172225,19.3413055 L24.5151641,19.3089801 L19.0209059,33.7568434 L17.5407978,33.7250712 L15.4849955,28.3863486 L12.95,28.3451527 L13,26.7788416 L16.8700519,26.8125012 L18.2094458,30.9571564 L23.1304131,17.7337983 L35.172225,17.7337983 Z M27.1064485,22.6331968 L27.147048,22.6540132 L29.3887425,25.8865715 L31.6930806,22.6331968 L33.8426715,22.7118788 L30.5626164,27.3398961 L33.9404347,32.5319938 L31.8789534,32.510382 L29.4497195,28.869139 L26.8834657,32.5319938 L24.6611297,32.4532014 L28.2641993,27.3975938 L24.8078214,22.6331968 L27.1064485,22.6331968 Z M16.4362514,14.95 L16.4828202,14.9817969 L18.6583444,20.7872194 L20.8628114,14.95 L22.1342757,15.0183672 L18.8627642,23.301537 L18.7637092,23.5406288 C18.5659674,24.0046933 18.3747922,24.3733066 18.1898256,24.6467355 C17.9718002,24.9690339 17.7195357,25.2022596 17.4330121,25.3455214 C17.1471735,25.4884407 16.8008647,25.5596 16.3944914,25.5596 C15.9831427,25.5596 15.6342025,25.4874378 15.3468885,25.341615 L15.2083634,25.2625584 L15.0687555,25.1121648 L15.6168425,24.105225 L15.7175248,24.179768 C15.8918831,24.2902767 16.1172527,24.346 16.3944914,24.346 C16.572376,24.346 16.7292383,24.3106507 16.8657193,24.240209 C17.0010998,24.1703351 17.1464574,24.0249775 17.299972,23.8037359 C17.4065326,23.6501633 17.5222459,23.4428969 17.6467829,23.1823543 L17.741835,22.9769646 L17.8238576,22.7898892 L18.0325721,22.3270242 L15.0720914,14.95 L16.4362514,14.95 Z" id="&lt;颜色&gt;形状" fill="#000000" fill-rule="nonzero"></path>
    </g>
</svg>